<svg width="24" height="24" viewBox="0 0 24 24" fill="none" xmlns="http://www.w3.org/2000/svg">
<path d="M6 6H7.71429V7.71429H6V6ZM19.7143 19.7143H21.4286V21.4286H19.7143V19.7143ZM19.7143 16.2857H18V12.8571H12.8571V21.4286H14.5714V14.5714H16.2857V18H21.4286V12.8571H19.7143V16.2857Z" fill="#006BC3"/>
<path d="M16.2856 19.7132H17.9999V21.4275H16.2856V19.7132ZM2.57129 11.1418H11.1428V2.57031H2.57129V11.1418V11.1418ZM4.28558 4.2846H9.42845V9.42747H4.28558V4.2846ZM5.99987 16.2846H7.71416V17.9989H5.99987V16.2846Z" fill="#006BC3"/>
<path d="M2.57129 21.4286H11.1428V12.8571H2.57129V21.4286V21.4286ZM4.28558 14.5714H9.42845V19.7143H4.28558V14.5714ZM16.2856 6H17.9999V7.71429H16.2856V6Z" fill="#006BC3"/>
<path d="M12.8574 2.57031V11.1418H21.4289V2.57031H12.8574ZM19.7146 9.42747H14.5717V4.2846H19.7146V9.42747Z" fill="#006BC3"/>
</svg>
